<?xml version="1.0" standalone="no"?>
<!DOCTYPE svg PUBLIC "-//W3C//DTD SVG 20010904//EN"
 "http://www.w3.org/TR/2001/REC-SVG-20010904/DTD/svg10.dtd">
<svg version="1.0" xmlns="http://www.w3.org/2000/svg"
 width="87.000000pt" height="87.000000pt" viewBox="0 0 87.000000 87.000000"
 preserveAspectRatio="xMidYMid meet">

<g transform="translate(0.000000,87.000000) scale(0.100000,-0.100000)"
fill="#000000" stroke="none">
<path d="M35 835 l-25 -24 0 -346 0 -346 25 -24 24 -25 346 0 346 0 24 25 25
24 0 346 0 346 -25 24 -24 25 -346 0 -346 0 -24 -25z m91 -236 l28 -102 24 89
c31 119 29 114 50 114 15 0 24 -20 47 -102 l29 -103 14 50 c41 152 42 155 62
155 18 0 18 -1 -1 -67 -11 -38 -27 -94 -36 -125 -14 -50 -20 -58 -40 -58 -13
0 -25 6 -28 13 -2 6 -14 48 -27 92 l-24 80 -23 -92 c-21 -84 -25 -93 -47 -93
-20 0 -26 10 -49 88 -14 48 -30 100 -35 116 -14 40 -13 46 9 46 15 0 24 -19
47 -101z m389 -181 c2 -7 14 -49 27 -93 l24 -80 23 93 c21 83 25 92 47 92 20
0 26 -10 49 -87 14 -49 30 -101 35 -117 14 -40 13 -46 -9 -46 -15 0 -24 19
-47 101 l-28 102 -24 -89 c-31 -119 -29 -114 -50 -114 -15 0 -24 20 -47 103
l-29 102 -14 -50 c-41 -152 -42 -155 -62 -155 -18 0 -18 1 1 68 11 37 27 93
36 125 14 49 20 57 40 57 13 0 25 -6 28 -12z"/>
<path d="M810 465 l0 -399 28 -30 27 -31 -31 28 -30 27 -394 0 -394 0 29 -30
29 -30 395 2 396 3 3 401 2 400 -30 29 -30 29 0 -399z"/>
</g>
</svg>
